<svg version="1" xmlns="http://www.w3.org/2000/svg" width="1066.667" height="1066.667" viewBox="0 0 800.000000 800.000000"><path d="M133.8 164.3c-32.1 12-48.8 18.7-49 19.7-.2.8-.3 2.2-.1 3 .2.9 9.5 9.1 20.6 18.4l20.2 17-.1 214.5c0 118 .1 215.1.3 215.7.9 2.6 5.7.1 14.5-7.3 5.1-4.3 9.9-8.4 10.6-9.1 1.7-1.5.7-1.7 9.3 1.9 7 2.9 28 9.4 33.7 10.4 1.5.2 5.2.9 8.2 1.5 3 .6 7.3 1.4 9.5 1.6 2.2.3 5.1.7 6.5 1.1 6.1 1.3 46.7 1.1 56-.3 39-6 70.5-23.7 95.9-53.9 8.9-10.6 21.8-34.4 26.5-48.8 2.9-9 6.1-22 7.1-29.2.4-2.8.9-5.9 1.1-6.9 1.7-9.3 2.3-38.7 1-51.6-1-10.6-1-10.5-4.2-27.6-2.1-11-11.3-32.4-19.4-44.7-17.6-27-44.1-44.8-73.5-49.4-11.2-1.7-37.9-.8-46.4 1.7-1.7.5-3.5.9-3.9 1-5 .6-21.7 6.7-28.7 10.5-11.3 6-27.3 16.8-35.3 23.7-1.8 1.5-3.8 2.8-4.5 2.8-.9 0-1.2-25.7-1.2-116.8V146.5l-3-.2c-1.8-.1-22.1 6.9-51.7 18zM267.7 389c42.6 8.4 69.2 40.4 74 89.3 1.4 13.6.8 43.7-1.1 54.7-.3 1.4-.7 4.3-1 6.5-2.2 17.8-11 39.8-21 53.2-9 12-20.7 20.2-35.1 25-6.7 2.1-10.2 2.6-21.5 2.9-20.4.5-35.9-2.9-52.1-11.2-6.8-3.5-17.4-10.6-20.9-14.1-.3-.2-.5-43-.5-95v-94.5l2.5-1.8c9.5-6.6 32.1-14.4 46-15.7 3-.3 5.6-.6 5.8-.8.7-.6 19.9.5 24.9 1.5zM652.5 147.5c-17.1 3.3-36.2 11.7-50.4 22.3-2 1.5-4 3-4.6 3.4-4.5 3.2-16.3 14-22.5 20.4-21.9 23-35.4 44-51.8 80.4-2.3 5.2-8.9 26-9.7 30.5-1.2 7.4-1.8 15.4-1.9 27.7l-.1 13.3-25.2.1c-13.9 0-25.6.3-25.9.7-.5.5-.9 22.1-.5 28.9.1 1.4 2.6 1.6 24.9 1.7 13.6 0 25.2 0 25.8.1.8 0 1.1 33.8 1.1 119.1v119.1l-21.4 10.6-21.4 10.7.3 5.5.3 5.5h154v-10.9l-13.2-5.6c-7.2-3-18.1-7.5-24.2-10l-11.1-4.5V377h2.3c1.2-.1 20.5-.1 43-.1 30-.1 40.7-.4 40.8-1.2.3-6-.1-29-.5-29.4-.3-.3-19.7-.6-43.2-.6h-42.6l.5-39.1c.4-36.4.7-43.1 2.2-51.4.3-1.8.7-4.7 1-6.5 2.4-14.4 8.1-27.4 15-34.3 4.5-4.5 15.5-11.5 15.5-9.9 0 .3.8.1 1.9-.4 3.4-1.9 8.6-2.5 22.1-2.5 19.4-.1 24.2.9 46 9.4 10.3 4.1 15.1 5.5 16.9 5.1 2.1-.6 3.6-3.5 10.4-19.7 5.4-13 8-20.6 8.4-24.4.5-5.2.3-5.7-3-9.6-4.3-4.9-13.2-9.8-24.5-13.5-9.8-3.1-22.9-3.6-34.7-1.4z"/></svg>