<svg version="1" xmlns="http://www.w3.org/2000/svg" width="1066.667" height="1066.667" viewBox="0 0 800.000000 800.000000"><path d="M238 84c-4.7 1-10.3 2.1-12.5 2.4-5.6.9-9.6 1.5-12.3 2.1-1.3.3-7.3 1.4-13.5 2.5s-12.3 2.2-13.7 2.4c-1.4.3-5.2 1-8.5 1.5-3.3.6-7.1 1.3-8.5 1.6-5.5 1.1-24.7 4.5-28.5 5.1-10.4 1.5-11 1.8-11.3 5-.3 2.7.1 3.2 3.5 4.6 14 5.6 46.9 20.3 47.5 21.1.3.6.4 1.5.2 2.1-.3.9-8 44.9-10 57.1-.3 1.6-.7 3.7-.9 4.5-.2.8-.6 3.3-1 5.5-.3 2.2-1.2 7.6-2 12s-1.7 9.6-2 11.5c-.6 3.9-1.6 9.4-2.1 12.5-.8 4.4-2.4 13.2-2.8 16-.7 4.2-5.6 32.4-6.2 35.5-.2 1.4-.7 4-1 5.9-.3 1.8-.8 4.3-1 5.5-.2 1.1-1.3 7.7-2.5 14.5-1.1 6.8-2.3 13.4-2.5 14.5-.5 2.6-1.3 7.1-1.9 11.1-.2 1.6-.6 4.1-.9 5.5-.5 2.2-2.8 15.5-4.2 23.5-.2 1.6-.9 5.7-1.5 9s-1.3 6.9-1.4 8c-1.4 8.1-2.7 15.4-3.1 17.5-.2 1.4-1.5 9-2.9 17s-2.7 15.4-2.9 16.5c-.2 1.1-.7 4-1.1 6.5-.8 5.1-1.2 7.4-2 11-.2 1.4-.7 4.1-1 6-.3 1.9-1.2 7.1-2 11.5s-1.7 9.7-2.1 11.9c-.3 2.1-.8 4.8-1 6-.4 2-.7 3.9-1.9 11.1-.9 5.2-4.5 25.9-4.9 28-.2 1.1-.7 4-1.1 6.5-.4 2.5-.9 5.4-1.1 6.5-.2 1.1-1.8 9.9-3.4 19.5-1.7 9.6-3.2 18.6-3.5 20-.3 1.4-.8 4.1-1.1 6-1.2 7.9-1.5 9.4-2 10.1-.3.5.7 1.1 2.2 1.5 1.8.5 4.1 0 7.1-1.5 2.4-1.1 5-2.1 5.8-2.1.8 0 1.5-.5 1.5-1 0-.6.6-1 1.4-1 1.2 0 7.5-2.6 20-8.4l4.9-2.2 5.1 2.6c11.1 5.8 29 11.6 42.1 13.7 2.8.4 12.4.8 21.5.7 13.6-.1 18.2-.5 26-2.4 26.9-6.5 48.6-19 71.8-41.5C349 517.8 376.4 457 381.6 395c.9-10.9 1-30.6.1-39-1.5-13.7-1.9-15.8-4.2-24.6-4.9-18.7-13.3-32.4-26.2-42.2-21.7-16.8-60.4-13.2-88 8.1-11.6 8.9-34.2 33.8-49.4 54.3-6.5 8.7-10.2 11.5-9.3 7 .4-1.9 1.1-6.3 3-16.6.3-1.9.7-4.4.9-5.5.1-1.1.7-4.7 1.3-8 .6-3.3 1.4-7.6 1.7-9.5.9-5.7 1.7-10.4 2.2-12.5.5-2.1.5-2.3 1.7-10 .4-2.8.9-5.9 1.1-7 .2-1.1 1-5.8 1.9-10.5 1.8-10 2.3-12.5 3.6-20.5.5-3.3 1.2-7.1 1.5-8.5.2-1.4.6-3.6.9-5 .2-1.4.9-5.2 1.5-8.5s1.3-7.6 1.6-9.5c.3-1.9 2.1-12.3 4-23s3.7-21.1 4-23c.3-1.9 1.2-7.1 2-11.5s1.7-9.6 2-11.5c.3-1.9 1.7-9.8 3-17.5 1.3-7.7 2.7-15.4 3-17 .5-3 1-5.6 2-10.5.3-1.4.7-4.2.9-6.2.2-2 .7-4.5 1-5.5.2-1 .7-3.5 1-5.6.3-2 .9-5.4 1.2-7.5.3-2 .7-4.2.7-4.7.3-1.6-5.2-1.4-14.3.5zm53.5 246.5c8.1 2.1 15.8 8.2 19.6 15.7 2.5 4.8 5.6 16.8 6.5 24.3.3 3.3.8 6.9 1.1 8 .6 2.9.5 39.8-.2 47-.3 3.3-.7 8-1 10.5-.3 2.5-.8 6.4-1 8.8-.8 7.6-5.5 28.5-8.6 38.7-17.6 56.8-50.2 91.6-84.4 89.9-18-1-30.3-8.2-44.8-26.3-5.4-6.8-5.8-7.8-5.3-11 .9-4.6 1.5-8.4 2-11.9.2-1.5 1.1-6.5 2-11.2.9-4.7 1.8-10.3 2.2-12.5.3-2.2.9-5.6 1.4-7.5.5-1.9 1.6-8.2 2.5-14 2.1-12.9 2.3-13.9 2.9-17 .3-1.4.8-4.3 1.1-6.5.4-2.2.8-4.9 1-6 .2-1.1 1.8-9.9 3.5-19.5s3.3-18.6 3.5-20c.3-1.4 1-5.3 1.6-8.8 1-5.5 2.1-7.6 10-18.2 19.8-26.8 46-48.1 64.7-52.4 5.9-1.4 14.5-1.4 19.7-.1zM661.8 84c-9.8 2-20.2 5.6-27.3 9.3-14.4 7.6-21.4 12-33.5 21.3-8.7 6.6-30.1 26.8-37.5 35.4-8.6 9.9-16 19.1-19.5 24-1.3 1.9-2.7 3.7-3 4-1.5 1.3-15.3 22.5-20.2 31-10.8 18.8-19 38.7-20.3 48.9-.4 2.9-4.4 27.6-4.5 27.6 0 0-11.8-.1-26.3-.2-14.4-.1-27.1 0-28.2.2-1.9.4-2 1.2-2 15 0 12.2.2 14.6 1.5 14.9.8.2 12.4.4 25.8.4s24.5.2 24.7.4c.3.3.1 2.9-.5 5.9-.5 3-1.2 7.8-1.5 10.8-.4 3-.9 6.3-1.1 7.5-.2 1.2-.7 4.1-1 6.6-.3 2.5-.8 5.3-.9 6.2-.4 1.8-3.3 21.3-3.9 26.3-.3 1.6-.9 5.9-1.5 9.5-.5 3.6-1.3 8.5-1.6 11-.3 2.5-.8 5.6-1 7-.2 1.4-.7 4.5-1 7-.3 2.5-.8 5.6-1 7-.6 3.1-1.2 7.1-2 13-.4 2.5-1.7 11.7-3.1 20.5-1.4 8.8-2.7 17.8-3 20-.2 2.2-.7 5.1-.9 6.5-.7 4.4-2.4 15.3-3 20-.3 2.5-.8 5.2-1 6-.2.8-.6 3.7-1 6.5-.3 2.7-.7 6.1-1 7.5-.2 1.4-.6 4.1-.9 6-.9 7.1-1.9 13.6-2.2 15.5-.2 1.1-1.1 6.7-1.9 12.5-.8 5.8-2.2 14.5-3 19.5-.8 4.9-1.7 11-2 13.5-.3 2.5-.8 5.6-1 7-.2 1.4-.7 4.5-1 7-9.3 68.3-27.3 103.9-56 110.9-5.3 1.3-14.3 1.6-21 .6-6.9-1-14.6-4.7-22.6-10.7-9.9-7.5-11.6-7.5-15.1 0-1.4 3.1-5 10.6-7.9 16.6-5.8 12-6.6 17.3-3.5 23.6 2 4.2 8.8 9.7 15.3 12.4 6.8 2.8 27.7 2.9 37.8.2 34.9-9.3 74.9-46.8 107.4-100.4 17.5-28.9 29.4-57.9 31.5-76.5.3-2.7.8-5.2 1-5.5.2-.4.7-3.2 1-6.3.4-3.1.8-6.5 1-7.5.3-1.8 1.3-7.9 2.1-13.4.2-1.4.7-4.8 1.1-7.5.3-2.8.8-5.3 1-5.6.1-.3.6-3.2.9-6.5.3-3.2.8-6.6 1.1-7.5.2-.9.7-3.4.9-5.5.3-2 .7-4.9 1-6.3.2-1.4.7-4.4.9-6.6.3-2.2.7-4.9 1-6 .2-1.1.7-4.2 1-6.8.4-2.7.9-5.8 1.1-6.9.3-1.1.7-3.9.9-6.2.3-2.2.7-5 1-6.1.2-1.1.7-4.5 1.2-7.5.4-3 .8-5.7.9-6 .2-.9 1.6-10.3 2.1-14 .3-1.9.9-6 1.4-9 .5-3 1.2-7.5 1.5-10 .3-2.5 1-7 1.5-10s1.2-7.3 1.5-9.5c.4-2.2.8-5.1 1.1-6.5.2-1.4.7-4.5 1-7 .3-2.5.8-5.2.9-6.2.2-.9.7-3.8 1.1-6.5.3-2.6.8-5.7 1-6.8.3-1.1.7-3.9 1-6.1.2-2.3.6-5 .8-6 .4-1.8 1.4-8.2 2.1-13.4.9-6.1 3.5-22.8 4-25.5l.5-3h78.5v-30l-36-.2c-19.8-.1-36.6-.2-37.3-.2-.8-.1-1.1-1.1-.7-3.1.3-1.7.7-4.2.9-5.8 1.2-7.8 1.9-11.9 2.2-13.7.2-1.1.7-4 1-6.5.3-2.5.8-5.4 1-6.5.2-1.1.7-3.8.9-6 .3-2.2 1-6.5 1.5-9.5s1.2-7.1 1.5-9c2.1-12.7 6.2-29.2 10.1-40.2 2.8-8 11.4-26.1 13.8-29.3 8-10.4 10.3-12.9 14.8-16.4 7.4-5.4 14.3-8.7 22.9-10.7 5.3-1.3 21.2-1.1 28.6.3 9.8 1.8 18.1 5.1 28.9 11.5 4.7 2.7 9.8 5.3 11.4 5.8 4.6 1.3 3.7 2.6 18.7-25.8 8.8-16.6 7.5-23.1-6-30.6-5.9-3.3-9.3-4.5-19.7-6.7-6.6-1.4-21.3-.9-31.2 1.1z"/></svg>