<?xml version="1.0" standalone="no"?>
<!DOCTYPE svg PUBLIC "-//W3C//DTD SVG 20010904//EN"
 "http://www.w3.org/TR/2001/REC-SVG-20010904/DTD/svg10.dtd">
<svg version="1.0" xmlns="http://www.w3.org/2000/svg"
 width="16.000000pt" height="16.000000pt" viewBox="0 0 16.000000 16.000000"
 preserveAspectRatio="xMidYMid meet">
<metadata>
Created by potrace 1.11, written by Peter Selinger 2001-2013
</metadata>
<g transform="translate(0.000000,16.000000) scale(0.003970,-0.003970)"
fill="#000000" stroke="none">
<path d="M2578 3253 l-318 -3 0 -69 c0 -82 -15 -73 163 -98 89 -12 126 -21
123 -29 -7 -19 -427 -554 -434 -554 -7 0 -371 553 -368 557 1 1 60 12 132 23
194 31 174 19 174 100 l0 70 -665 0 -665 0 0 -74 0 -73 139 -23 140 -23 351
-539 c193 -297 349 -546 346 -553 -2 -7 -178 -236 -390 -507 l-386 -494 -132
-25 -133 -24 -3 -72 -3 -73 486 0 485 0 0 74 0 73 -151 24 -152 24 284 363
c156 200 287 358 291 354 5 -5 112 -166 237 -358 141 -215 224 -351 217 -355
-6 -4 -47 -12 -91 -18 -44 -6 -108 -16 -142 -22 l-63 -11 0 -69 0 -69 665 0
665 0 0 73 0 72 -137 23 c-76 13 -141 27 -145 30 -9 10 -798 1223 -801 1232
-4 15 657 851 677 855 30 8 238 45 248 45 4 0 8 34 8 75 l0 75 -167 -2 c-93
-2 -311 -4 -485 -5z"/>
</g>
</svg>
